<?xml version="1.0" standalone="no"?><svg data-noselect="" 
  viewBox="142.54187011719 96.84918068315545 535 401.52276755903455" 
  width="535" 
  height="401.52276755903455" 
  ref="svg_canvas" 
  preserveAspectRatio="none" 
  version="1.1" xmlns="http://www.w3.org/2000/svg" 
  style="background: #ffffff;">
    <defs></defs>
    <g id="shape_D9YWAPSylw" class="icon"  ref="shape_D9YWAPSylw" key="shape_D9YWAPSylw" transform="translate(310.37922667476,176.84918068315545) rotate(0,89.54399642315,89.54400215677) scale(1,1)" style="cursor:move;display:inline;opacity:1;" filter="">
            <g style="display:inline"><rect fill="rgba(0,0,0,0)" width="199.0879928463" height="149.6739372417691" x="-10" y="-10"></rect><svg version="1.1" id="图层_1" xmlns="http://www.w3.org/2000/svg" xmlns:xlink="http://www.w3.org/1999/xlink" x="0px" y="0px" width="179.0879928463" height="129.6739372417691" viewBox="1.25 2.4700000286102295 188.75 136.6699981689453" style="enable-background:new 0 0 192 141;" xml:space="preserve" class="style-removed" preserveAspectRatio="none" data-parent="shape_D9YWAPSylw">

<g>
	<path d="M95.63,2.47C43.5,2.47,1.25,44.72,1.25,96.84c0,9.33,1.36,18.34,3.88,26.85c-1.09-5.69-1.67-11.57-1.67-17.58
		c0-51.29,41.58-92.88,92.88-92.88c51.29,0,92.88,41.58,92.88,92.88c0,1.13-0.03,2.26-0.07,3.38c0.56-4.14,0.85-8.37,0.85-12.66
		C190,44.72,147.75,2.47,95.63,2.47z" fill="#036EB8"></path>
</g>
<path d="M16.39,105.58c0,0,27.52-1.13,83.42-64.15l6.63,5.68l2.84,23.4l13.37-12.96l6.04-1.74l10.45,18.7l7.12-3.65
	l40.63,35.94l-32.64-19.44l3.47,13.89l-16.58-17.26l0,18.57l-19.82-34.29l-15.6,17.36l-1.91-25.96l-3.47-3.47L80.8,88.04l3.13-15.97
	C83.93,72.07,45.21,105.92,16.39,105.58z" fill="#5EAB31"></path>
<circle cx="52.57" cy="59.57" r="8.57" fill="#F1AA00"></circle>
<path d="M124.32,121.24" fill="#1D2089"></path>
<g>
	<path d="M106.47,110.98c-100.73,6.36-98.18,2.06-89.22-9.42c1.28-1.63-55.65,29.33,80.92,12.74
		c37.02-2.76,77.91-0.55-25.81,24.84c28.68-2.07,43.69-3.28,62.22-7.95C156.44,125.68,175.49,107.62,106.47,110.98z" fill="#595757"></path>
</g>
</svg></g>
        </g><g id="shape_ECkG27l3mN" class="brand_name"  ref="shape_ECkG27l3mN" key="shape_ECkG27l3mN" transform="translate(189.54187011719,118.37194824219) rotate(0,261,269.091796875) scale(1,1)" style="cursor:move;display:inline;opacity:1;" filter="">
            <g style="display:inline"><svg xmlns="http://www.w3.org/2000/svg" version="1.1" xmlns:xlink="http://www.w3.org/1999/xlink" width="591" height="525" viewBox="0 0 591 525" preserveAspectRatio="none" data-parent="shape_ECkG27l3mN"><rect fill="rgba(0,0,0,0)" width="291" height="75" x="75" y="225"></rect><g data-width="290.537109375" transform="translate(75.2314453125, 0)"><path d="M56.25-29.66L31.27-29.66L31.27-24.46L47.31-24.46L47.31-6.45Q41.31-2.42 34.06-2.42L34.06-2.42Q24.24-2.42 17.36-9.38L17.36-9.38Q10.40-16.33 10.40-26.15L10.40-26.15Q10.40-35.89 17.36-42.85L17.36-42.85Q24.24-49.80 34.06-49.80L34.06-49.80Q46.14-49.80 54.05-43.87L54.05-43.87L57.79-47.61Q48.12-56.91 34.06-56.91L34.06-56.91Q20.58-56.91 10.99-48.12L10.99-48.12Q1.46-39.40 1.46-27.03L1.46-27.03Q1.46-14.65 10.99-5.93L10.99-5.93Q20.58 2.78 34.06 2.78L34.06 2.78Q46.88 2.78 56.25-5.20L56.25-5.20L56.25-29.66Z" transform="translate(0 290) skewX(0)" fill="#191919" stroke="#191919" stroke-width="0.125" data-glyph-w="63.05859375" data-glyph-h="73.2421875" data-glyph-ascender="64.453125" data-glyph-descender="-8.7890625"></path><path d="M2.93-55.74L2.93 1.68L43.80 1.68L43.80-3.52L11.87-3.52L11.87-55.74L2.93-55.74Z" transform="translate(63.05859375 290) skewX(0)" fill="#191919" stroke="#191919" stroke-width="0.125" data-glyph-w="49.728515625" data-glyph-h="73.2421875" data-glyph-ascender="64.453125" data-glyph-descender="-8.7890625"></path><path d="M1.46 1.68L11.21 1.68L17.72-13.48L44.90-13.48L51.42 1.68L61.16 1.68L36.47-55.74L26.15-55.74L1.46 1.68ZM42.63-18.75L20.00-18.75L31.27-45.12L42.63-18.75Z" transform="translate(112.787109375 290) skewX(0)" fill="#191919" stroke="#191919" stroke-width="0.125" data-glyph-w="65.6220703125" data-glyph-h="73.2421875" data-glyph-ascender="64.453125" data-glyph-descender="-8.7890625"></path><path d="M48.85-15.45Q48.85-7.69 42.19-2.56L42.19-2.56Q35.16 2.78 23.88 2.78L23.88 2.78Q9.23 2.78 1.46-7.40L1.46-7.40L6.23-11.21Q12.60-4.91 22.41-4.91L22.41-4.91Q30.10-4.91 34.86-7.91L34.86-7.91Q39.33-10.69 39.33-14.72L39.33-14.72Q39.33-18.97 33.84-21.24L33.84-21.24Q32.01-21.97 21.61-24.54L21.61-24.54Q13.18-26.59 9.38-29.37L9.38-29.37Q3.81-33.33 3.81-40.50L3.81-40.50Q3.81-47.53 9.67-52.08L9.67-52.08Q15.89-56.91 26.15-56.91L26.15-56.91Q38.67-56.91 45.92-48.19L45.92-48.19L41.24-44.38Q35.89-49.80 27.69-49.80L27.69-49.80Q20.87-49.80 16.70-47.09L16.70-47.09Q12.74-44.46 12.74-40.50L12.74-40.50Q12.74-36.91 18.38-34.79L18.38-34.79Q19.19-34.50 30.83-31.57L30.83-31.57Q39.18-29.44 43.21-26.51L43.21-26.51Q48.85-22.49 48.85-15.45L48.85-15.45Z" transform="translate(178.4091796875 290) skewX(0)" fill="#191919" stroke="#191919" stroke-width="0.125" data-glyph-w="53.3173828125" data-glyph-h="73.2421875" data-glyph-ascender="64.453125" data-glyph-descender="-8.7890625"></path><path d="M2.93 1.68L2.93-55.74L11.87-55.74L11.87-29.66L43.95-29.66L43.95-55.74L52.88-55.74L52.88 1.68L43.95 1.68L43.95-24.46L11.87-24.46L11.87 1.68L2.93 1.68Z" transform="translate(231.7265625 290) skewX(0)" fill="#191919" stroke="#191919" stroke-width="0.125" data-glyph-w="58.810546875" data-glyph-h="73.2421875" data-glyph-ascender="64.453125" data-glyph-descender="-8.7890625"></path></g></svg></g>
        </g>
  </svg>